<svg aria-hidden="true" style="position:absolute;width:0;height:0;overflow:hidden" xmlns="http://www.w3.org/2000/svg"><defs><symbol id="icon-facebook" viewBox="0 0 20 20"><path d="M17 1H3c-1.1 0-2 .9-2 2v14c0 1.101.9 2 2 2h7v-7H8V9.525h2v-2.05c0-2.164 1.212-3.684 3.766-3.684l1.803.002v2.605h-1.197c-.994 0-1.372.746-1.372 1.438v1.69h2.568L15 12h-2v7h4c1.1 0 2-.899 2-2V3c0-1.1-.9-2-2-2z"/></symbol><symbol id="icon-google" viewBox="0 0 20 20"><path d="M1.989 5.589c0 1.494.499 2.572 1.482 3.205.806.52 1.74.598 2.226.598.118 0 .213-.006.279-.01 0 0-.154 1.004.59 1.996h-.034c-1.289 0-5.493.269-5.493 3.727 0 3.516 3.861 3.695 4.636 3.695.061 0 .097-.002.097-.002.008 0 .063.002.158.002.497 0 1.782-.062 2.975-.643 1.548-.75 2.333-2.059 2.333-3.885 0-1.764-1.196-2.814-2.069-3.582-.533-.469-.994-.873-.994-1.266 0-.4.337-.701.762-1.082.689-.615 1.339-1.492 1.339-3.15 0-1.457-.189-2.436-1.354-3.057.121-.062.551-.107.763-.137.631-.086 1.554-.184 1.554-.699V1.2H6.64c-.046.002-4.651.172-4.651 4.389zm7.424 9.013c.088 1.406-1.115 2.443-2.922 2.574-1.835.135-3.345-.691-3.433-2.096-.043-.676.254-1.336.835-1.863.589-.533 1.398-.863 2.278-.928.104-.006.207-.012.31-.012 1.699.001 2.849.999 2.932 2.325zM8.212 4.626c.451 1.588-.23 3.246-1.316 3.553a1.417 1.417 0 0 1-.384.052c-.994 0-1.979-1.006-2.345-2.393-.204-.776-.187-1.458.047-2.112.229-.645.643-1.078 1.163-1.225.125-.035.254-.053.385-.053 1.2 0 1.972.498 2.45 2.178zM16 8V5h-2v3h-3v2h3v3h2v-3h3V8h-3z"/></symbol><symbol id="icon-instagram" viewBox="0 0 20 20"><path d="M17 1H3c-1.1 0-2 .9-2 2v14c0 1.101.9 2 2 2h14c1.1 0 2-.899 2-2V3c0-1.1-.9-2-2-2zM9.984 15.523a5.539 5.539 0 0 0 5.538-5.539c0-.338-.043-.664-.103-.984H17v7.216a.69.69 0 0 1-.693.69H3.693a.69.69 0 0 1-.693-.69V9h1.549c-.061.32-.104.646-.104.984a5.54 5.54 0 0 0 5.539 5.539zM6.523 9.984c0-1.912 1.55-3.461 3.462-3.461a3.461 3.461 0 1 1 0 6.923 3.461 3.461 0 0 1-3.462-3.462zM16.307 6h-1.615A.694.694 0 0 1 14 5.308V3.691c0-.382.31-.691.691-.691h1.615c.384 0 .694.309.694.691v1.616c0 .381-.31.693-.693.693z"/></symbol><symbol id="icon-linkedin" viewBox="0 0 20 20"><path d="M5 3c0 1.062-.71 1.976-2.001 1.976C1.784 4.976 1 4.114 1 3.052 1 1.962 1.76 1 3 1s1.976.91 2 2zM1 19V6h4v13H1zM7 10.444c0-1.545-.051-2.836-.102-3.951h3.594l.178 1.723h.076c.506-.811 1.746-2 3.822-2C17.1 6.216 19 7.911 19 11.558V19h-4v-6.861c0-1.594-.607-2.81-2-2.81-1.062 0-1.594.86-1.873 1.569-.102.254-.127.608-.127.963V19H7v-8.556z"/></symbol><symbol id="icon-twitter" viewBox="0 0 20 20"><path d="M17.316 6.246c.008.162.011.326.011.488 0 4.99-3.797 10.742-10.74 10.742-2.133 0-4.116-.625-5.787-1.697a7.577 7.577 0 0 0 5.588-1.562 3.779 3.779 0 0 1-3.526-2.621 3.858 3.858 0 0 0 1.705-.065 3.779 3.779 0 0 1-3.028-3.703v-.047a3.766 3.766 0 0 0 1.71.473 3.775 3.775 0 0 1-1.168-5.041 10.716 10.716 0 0 0 7.781 3.945 3.813 3.813 0 0 1-.097-.861 3.773 3.773 0 0 1 3.774-3.773 3.77 3.77 0 0 1 2.756 1.191 7.602 7.602 0 0 0 2.397-.916 3.789 3.789 0 0 1-1.66 2.088 7.55 7.55 0 0 0 2.168-.594 7.623 7.623 0 0 1-1.884 1.953z"/></symbol></defs></svg>